<?xml version="1.0" encoding="UTF-8" standalone="no"?>
<!-- Created with Inkscape (http://www.inkscape.org/) -->

<svg
   xmlns:dc="http://purl.org/dc/elements/1.1/"
   xmlns:cc="http://creativecommons.org/ns#"
   xmlns:rdf="http://www.w3.org/1999/02/22-rdf-syntax-ns#"
   xmlns:svg="http://www.w3.org/2000/svg"
   xmlns="http://www.w3.org/2000/svg"
   xmlns:sodipodi="http://sodipodi.sourceforge.net/DTD/sodipodi-0.dtd"
   xmlns:inkscape="http://www.inkscape.org/namespaces/inkscape"
   width="265.99078mm"
   height="265.99078mm"
   viewBox="0 0 942.48703 942.48702"
   id="svg4180"
   version="1.1"
   inkscape:version="0.91 r"
   sodipodi:docname="plus.svg">
  <defs
     id="defs4182" />
  <sodipodi:namedview
     id="base"
     pagecolor="#ffffff"
     bordercolor="#666666"
     borderopacity="1.0"
     inkscape:pageopacity="0.0"
     inkscape:pageshadow="2"
     inkscape:zoom="0.35"
     inkscape:cx="31.243778"
     inkscape:cy="466.95863"
     inkscape:document-units="px"
     inkscape:current-layer="layer1"
     showgrid="false"
     inkscape:window-width="1366"
     inkscape:window-height="748"
     inkscape:window-x="-2"
     inkscape:window-y="-3"
     inkscape:window-maximized="1"
     fit-margin-top="0"
     fit-margin-left="0"
     fit-margin-right="0"
     fit-margin-bottom="0" />
  <metadata
     id="metadata4185">
    <rdf:RDF>
      <cc:Work
         rdf:about="">
        <dc:format>image/svg+xml</dc:format>
        <dc:type
           rdf:resource="http://purl.org/dc/dcmitype/StillImage" />
        <dc:title></dc:title>
      </cc:Work>
    </rdf:RDF>
  </metadata>
  <g
     inkscape:label="Layer 1"
     inkscape:groupmode="layer"
     id="layer1"
     transform="translate(99.100921,-56.833788)">
    <path
       style="opacity:1;fill:#ffffff;fill-opacity:1;stroke:#000000;stroke-width:2.48699999;stroke-miterlimit:4;stroke-dasharray:none;stroke-opacity:1"
       d="m 242.91211,58.077288 c -3.19575,0 -5.76953,2.255443 -5.76953,5.058594 l 0,327.796878 -329.939461,0 c -2.80315,0 -5.06054,2.57378 -5.06054,5.76953 l 0,248.46289 c 0,3.19575 2.25739,5.76758 5.06054,5.76758 l 329.939461,0 0,342.08397 c 0,2.8032 2.57378,5.0606 5.76953,5.0606 l 248.46289,0 c 3.19575,0 5.76758,-2.2574 5.76758,-5.0606 l 0,-342.08397 339.9414,0 c 2.80316,0 5.0586,-2.57183 5.0586,-5.76758 l 0,-248.46289 c 0,-3.19575 -2.25544,-5.76953 -5.0586,-5.76953 l -339.9414,0 0,-327.796878 c 0,-2.803151 -2.57183,-5.058594 -5.76758,-5.058594 l -248.46289,0 z"
       id="rect4732"
       inkscape:connector-curvature="0" />
  </g>
</svg>
